<svg width="43.460022" height="41.181519" viewBox="0 0 43.46 41.1815" fill="none" xmlns="http://www.w3.org/2000/svg" xmlns:xlink="http://www.w3.org/1999/xlink">
	<desc>
			Created with Pixso.
	</desc>
	<defs/>
	<path id="Vector" d="M6.72 40.4C6.74 40.4 6.75 40.4 6.77 40.41C6.78 40.41 6.79 40.42 6.81 40.43L7.02 40.64C6.85 40.81 6.65 40.94 6.41 41.03C6.14 41.13 5.84 41.18 5.54 41.18C5.26 41.18 4.98 41.14 4.72 41.04C4.49 40.96 4.28 40.83 4.11 40.67C3.93 40.5 3.8 40.3 3.71 40.09C3.61 39.85 3.57 39.6 3.57 39.35C3.57 39.1 3.62 38.84 3.72 38.61C3.81 38.39 3.96 38.19 4.14 38.03C4.33 37.86 4.55 37.74 4.8 37.65C5.06 37.56 5.35 37.51 5.64 37.52C5.91 37.51 6.17 37.55 6.42 37.64C6.64 37.72 6.84 37.83 7.01 37.97L6.82 38.2C6.81 38.21 6.8 38.22 6.78 38.24C6.76 38.25 6.73 38.25 6.7 38.25C6.68 38.25 6.65 38.24 6.63 38.23L6.53 38.17L6.39 38.09C6.33 38.07 6.27 38.04 6.21 38.02C6.13 37.99 6.04 37.98 5.96 37.96C5.85 37.94 5.74 37.94 5.64 37.94C5.43 37.93 5.22 37.97 5.03 38.04C4.85 38.1 4.69 38.19 4.56 38.32C4.42 38.45 4.32 38.6 4.25 38.76C4.17 38.95 4.13 39.15 4.14 39.35C4.13 39.55 4.17 39.75 4.25 39.95C4.31 40.11 4.42 40.26 4.55 40.39C4.68 40.51 4.83 40.6 5 40.66C5.18 40.73 5.37 40.76 5.57 40.76C5.68 40.76 5.79 40.75 5.9 40.74C6.08 40.72 6.25 40.67 6.4 40.58C6.48 40.54 6.55 40.49 6.62 40.43C6.65 40.41 6.68 40.4 6.72 40.4Z" fill="#AFB1B8" fill-opacity="1.000000" fill-rule="nonzero"/>
	<path id="Vector" d="M13.02 39.35C13.02 39.6 12.97 39.85 12.87 40.09C12.78 40.3 12.64 40.49 12.46 40.66C12.28 40.82 12.06 40.95 11.82 41.03C11.28 41.21 10.69 41.21 10.16 41.03C9.92 40.95 9.7 40.82 9.52 40.66C9.34 40.49 9.2 40.29 9.1 40.08C8.91 39.6 8.91 39.08 9.1 38.6C9.2 38.39 9.34 38.19 9.52 38.02C9.7 37.86 9.92 37.74 10.16 37.66C10.69 37.48 11.28 37.48 11.82 37.66C12.06 37.75 12.28 37.87 12.46 38.04C12.64 38.2 12.78 38.4 12.87 38.61C12.97 38.84 13.02 39.1 13.02 39.35ZM12.45 39.35C12.45 39.15 12.42 38.95 12.34 38.76C12.28 38.59 12.18 38.44 12.05 38.31C11.92 38.19 11.77 38.1 11.59 38.03C11.2 37.9 10.77 37.9 10.39 38.03C10.21 38.1 10.05 38.19 9.92 38.31C9.79 38.44 9.69 38.59 9.63 38.76C9.49 39.14 9.49 39.56 9.63 39.94C9.69 40.1 9.79 40.26 9.92 40.38C10.05 40.5 10.21 40.6 10.39 40.66C10.77 40.79 11.2 40.79 11.59 40.66C11.77 40.6 11.92 40.5 12.05 40.38C12.18 40.25 12.28 40.1 12.34 39.94C12.42 39.75 12.45 39.55 12.45 39.35Z" fill="#AFB1B8" fill-opacity="1.000000" fill-rule="nonzero"/>
	<path id="Vector" d="M17.32 39.97L17.37 40.1C17.4 40.06 17.41 40.01 17.44 39.97C17.46 39.93 17.48 39.88 17.51 39.84L18.9 37.64C18.93 37.6 18.95 37.58 18.98 37.57C19.02 37.56 19.06 37.56 19.09 37.56L19.51 37.56L19.51 41.14L19.02 41.14L19.02 38.51C19.02 38.47 19.02 38.43 19.02 38.39C19.02 38.35 19.02 38.31 19.02 38.27L17.62 40.5C17.6 40.54 17.57 40.56 17.53 40.58C17.5 40.6 17.46 40.61 17.41 40.61L17.34 40.61C17.29 40.61 17.25 40.6 17.22 40.58C17.18 40.56 17.15 40.54 17.13 40.5L15.69 38.26C15.69 38.3 15.69 38.34 15.69 38.39C15.69 38.43 15.69 38.47 15.69 38.5L15.69 41.13L15.22 41.13L15.22 37.56L15.63 37.56C15.67 37.56 15.71 37.56 15.75 37.57C15.78 37.58 15.81 37.61 15.82 37.64L17.25 39.84C17.27 39.88 17.3 39.93 17.32 39.97Z" fill="#AFB1B8" fill-opacity="1.000000" fill-rule="nonzero"/>
	<path id="Vector" d="M22.56 39.79L22.56 41.13L22.01 41.13L22.01 37.56L23.23 37.56C23.46 37.55 23.69 37.58 23.91 37.64C24.09 37.68 24.25 37.76 24.39 37.86C24.51 37.96 24.6 38.08 24.66 38.21C24.73 38.36 24.76 38.51 24.75 38.67C24.76 38.82 24.72 38.98 24.65 39.12C24.59 39.26 24.49 39.38 24.36 39.48C24.22 39.59 24.05 39.67 23.88 39.72C23.66 39.78 23.44 39.81 23.22 39.8L22.56 39.79ZM22.56 39.41L23.22 39.41C23.36 39.41 23.51 39.39 23.64 39.35C23.75 39.32 23.86 39.27 23.95 39.2C24.03 39.13 24.09 39.05 24.13 38.96C24.18 38.87 24.2 38.77 24.2 38.66C24.2 38.56 24.19 38.46 24.14 38.37C24.1 38.28 24.04 38.2 23.95 38.13C23.74 37.99 23.48 37.92 23.22 37.93L22.56 37.93L22.56 39.41Z" fill="#AFB1B8" fill-opacity="1.000000" fill-rule="nonzero"/>
	<path id="Vector" d="M29.89 41.14L29.46 41.14C29.41 41.14 29.37 41.13 29.34 41.1C29.31 41.08 29.28 41.05 29.27 41.02L28.9 40.16L27.03 40.16L26.65 41.02C26.64 41.05 26.61 41.08 26.58 41.1C26.55 41.13 26.5 41.14 26.46 41.14L26.03 41.14L27.66 37.56L28.23 37.56L29.89 41.14ZM27.19 39.81L28.73 39.81L28.08 38.35C28.03 38.24 27.99 38.13 27.96 38.02L27.89 38.2C27.87 38.26 27.85 38.31 27.83 38.35L27.19 39.81Z" fill="#AFB1B8" fill-opacity="1.000000" fill-rule="nonzero"/>
	<path id="Vector" d="M32.24 37.57C32.28 37.59 32.3 37.61 32.33 37.64L34.71 40.34C34.71 40.29 34.71 40.25 34.71 40.21C34.71 40.17 34.71 40.13 34.71 40.09L34.71 37.56L35.2 37.56L35.2 41.14L34.93 41.14C34.89 41.14 34.85 41.13 34.81 41.12C34.78 41.1 34.75 41.08 34.73 41.05L32.34 38.35C32.35 38.4 32.35 38.44 32.34 38.48C32.34 38.52 32.34 38.55 32.34 38.59L32.34 41.14L31.86 41.14L31.86 37.56L32.15 37.56C32.18 37.56 32.21 37.56 32.24 37.57Z" fill="#AFB1B8" fill-opacity="1.000000" fill-rule="nonzero"/>
	<path id="Vector" d="M39.22 39.71L39.22 41.14L38.67 41.14L38.67 39.71L37.16 37.56L37.65 37.56C37.7 37.56 37.74 37.57 37.77 37.59C37.8 37.61 37.82 37.64 37.84 37.67L38.79 39.06C38.83 39.12 38.86 39.17 38.89 39.23C38.91 39.28 38.93 39.33 38.95 39.38L39.02 39.22C39.05 39.17 39.08 39.11 39.12 39.06L40.05 37.66C40.07 37.63 40.09 37.61 40.12 37.58C40.15 37.56 40.19 37.55 40.24 37.55L40.73 37.55L39.22 39.71Z" fill="#AFB1B8" fill-opacity="1.000000" fill-rule="nonzero"/>
	<path id="Vector" d="M17.05 31.55C17.28 31.58 17.52 31.6 17.77 31.62C21.45 30.19 24.56 27.85 26.71 24.89C28.87 21.93 29.98 18.49 29.89 14.99L25.84 11.46C26.66 15.19 26.28 19.04 24.72 22.59C23.17 26.14 20.51 29.24 17.05 31.55Z" fill="#AFB1B8" fill-opacity="1.000000" fill-rule="nonzero"/>
	<path id="Vector" d="M15.6 31.39L15.71 31.41C19.41 29.1 22.24 25.89 23.81 22.18C25.39 18.47 25.65 14.43 24.56 10.59L18.79 5.57C21.12 9.7 22.06 14.31 21.5 18.88C20.94 23.45 18.89 27.79 15.6 31.39Z" fill="#AFB1B8" fill-opacity="1.000000" fill-rule="nonzero"/>
	<path id="Vector" d="M35.18 19.12C34.2 22.97 31.82 26.44 28.39 29.01C27.39 29.77 26.31 30.44 25.16 31.03C27.95 30.31 30.52 29.05 32.67 27.34C34.81 25.63 36.47 23.51 37.53 21.15L35.18 19.12Z" fill="#AFB1B8" fill-opacity="1.000000" fill-rule="nonzero"/>
	<path id="Vector" d="M34.26 18.56L30.93 15.66C30.87 18.96 29.79 22.19 27.8 25.01C25.81 27.82 23 30.13 19.64 31.68L19.66 31.68C20.4 31.68 21.15 31.64 21.89 31.56C25.03 30.45 27.8 28.68 29.96 26.41C32.12 24.14 33.6 21.44 34.26 18.56Z" fill="#AFB1B8" fill-opacity="1.000000" fill-rule="nonzero"/>
	<path id="Vector" d="M16.08 3.46L12.1 0C8.55 1.19 5.49 3.29 3.33 6.02C1.17 8.75 0.01 11.98 0 15.29L0 15.29C0.01 18.95 1.43 22.5 4.02 25.38C6.62 28.27 10.25 30.31 14.34 31.2C17.99 27.34 20.12 22.56 20.44 17.57C20.75 12.59 19.22 7.64 16.08 3.46Z" fill="#AFB1B8" fill-opacity="1.000000" fill-rule="nonzero"/>
	<path id="Vector" d="M43.46 18.02C43.44 13.68 41.45 9.52 37.91 6.45C34.38 3.38 29.59 1.65 24.59 1.63C22.28 1.63 19.99 2 17.84 2.73L42.2 23.89C43.03 22.02 43.46 20.03 43.46 18.02Z" fill="#AFB1B8" fill-opacity="1.000000" fill-rule="nonzero"/>
</svg>
