<svg width="62.539978" height="45.433472" viewBox="0 0 62.54 45.4335" fill="none" xmlns="http://www.w3.org/2000/svg" xmlns:xlink="http://www.w3.org/1999/xlink">
	<desc>
			Created with Pixso.
	</desc>
	<defs/>
	<path id="Vector" d="M4.75 37.96C5 38.24 5.13 38.59 5.12 38.94C5.13 39.17 5.09 39.4 4.99 39.62C4.89 39.83 4.74 40.02 4.55 40.17C4.08 40.5 3.49 40.66 2.9 40.63L0 40.63L0 34.43L2.84 34.43C3.4 34.4 3.96 34.54 4.41 34.85C4.6 34.99 4.74 35.16 4.84 35.36C4.94 35.57 4.98 35.78 4.97 36C4.98 36.35 4.87 36.68 4.64 36.95C4.42 37.2 4.11 37.37 3.77 37.43C4.16 37.5 4.5 37.69 4.75 37.96ZM1.35 37.03L2.56 37.03C2.84 37.05 3.11 36.97 3.33 36.82C3.43 36.75 3.5 36.65 3.54 36.55C3.59 36.44 3.61 36.33 3.6 36.22C3.6 36.11 3.59 35.99 3.54 35.89C3.5 35.78 3.43 35.69 3.34 35.61C3.11 35.46 2.83 35.38 2.54 35.4L1.35 35.4L1.35 37.03ZM3.45 39.4C3.55 39.33 3.63 39.23 3.68 39.12C3.73 39.01 3.75 38.89 3.74 38.77C3.75 38.65 3.73 38.54 3.67 38.43C3.62 38.32 3.55 38.22 3.45 38.14C3.21 37.98 2.92 37.9 2.62 37.92L1.35 37.92L1.35 39.62L2.64 39.62C2.93 39.63 3.22 39.56 3.45 39.4Z" fill="#AFB1B8" fill-opacity="1.000000" fill-rule="nonzero"/>
	<path id="Vector" d="M10.57 40.63L8.98 38.21L8.39 38.21L8.39 40.63L7.03 40.63L7.03 34.43L9.6 34.43C10.25 34.39 10.9 34.58 11.4 34.96C11.76 35.3 11.98 35.74 12.01 36.21C12.05 36.68 11.9 37.14 11.59 37.52C11.27 37.86 10.84 38.08 10.36 38.15L12.05 40.63L10.57 40.63ZM8.39 37.36L9.5 37.36C10.28 37.36 10.66 37.05 10.66 36.42C10.67 36.3 10.65 36.17 10.6 36.05C10.55 35.93 10.48 35.82 10.38 35.73C10.13 35.54 9.82 35.45 9.5 35.48L8.38 35.48L8.39 37.36Z" fill="#AFB1B8" fill-opacity="1.000000" fill-rule="nonzero"/>
	<path id="Vector" d="M18.01 39.38L15.29 39.38L14.81 40.63L13.39 40.63L15.88 34.5L17.42 34.5L19.9 40.63L18.47 40.63L18.01 39.38ZM17.64 38.44L16.65 35.83L15.66 38.44L17.64 38.44Z" fill="#AFB1B8" fill-opacity="1.000000" fill-rule="nonzero"/>
	<path id="Vector" d="M27.32 40.63L25.97 40.63L22.94 36.41L22.94 40.63L21.59 40.63L21.59 34.43L22.94 34.43L25.97 38.67L25.97 34.43L27.32 34.43L27.32 40.63Z" fill="#AFB1B8" fill-opacity="1.000000" fill-rule="nonzero"/>
	<path id="Vector" d="M35.03 39.14C34.75 39.61 34.32 39.99 33.81 40.24C33.22 40.51 32.56 40.64 31.91 40.63L29.5 40.63L29.5 34.43L31.91 34.43C32.56 34.42 33.22 34.55 33.81 34.81C34.32 35.05 34.75 35.43 35.03 35.89C35.31 36.4 35.45 36.95 35.45 37.52C35.45 38.08 35.31 38.64 35.03 39.14ZM33.48 39C33.87 38.58 34.08 38.06 34.08 37.52C34.08 36.98 33.87 36.45 33.48 36.04C33.02 35.67 32.41 35.48 31.79 35.51L30.85 35.51L30.85 39.52L31.79 39.52C32.41 39.56 33.02 39.37 33.48 39Z" fill="#AFB1B8" fill-opacity="1.000000" fill-rule="nonzero"/>
	<path id="Vector" d="M18.85 0C18.85 0 36.29 6.02 35.92 14.75L35.92 29.5C35.92 29.5 18.49 23.47 18.86 14.75L18.85 0Z" fill="#AFB1B8" fill-opacity="1.000000" fill-rule="nonzero"/>
	<path id="Vector" d="M51.46 26.05C54.75 23.97 58.56 22.69 62.53 22.31L62.53 17.69C57.95 19.31 54.07 22.24 51.46 26.05Z" fill="#AFB1B8" fill-opacity="1.000000" fill-rule="nonzero"/>
	<path id="Vector" d="M49.48 27.44C52.17 22.47 56.85 18.63 62.54 16.72L62.54 3.41C62.54 3.41 37.7 12 38.23 24.42L38.23 45.43C38.23 45.43 39.33 45.04 41.07 44.32C41.07 43.65 41.07 42.98 41.15 42.29C41.67 36.53 44.66 31.18 49.48 27.44Z" fill="#AFB1B8" fill-opacity="1.000000" fill-rule="nonzero"/>
	<path id="Vector" d="M47.11 35.24C47.25 33.78 47.54 32.34 47.98 30.94C44.98 34.18 43.17 38.19 42.79 42.42C42.75 42.82 42.73 43.22 42.72 43.63C44.14 43.01 45.78 42.23 47.5 41.32C47.06 39.32 46.93 37.28 47.11 35.24Z" fill="#AFB1B8" fill-opacity="1.000000" fill-rule="nonzero"/>
	<path id="Vector" d="M48.1 35.32C47.94 37.16 48.04 39.01 48.41 40.82C55.19 37.11 62.82 31.36 62.53 24.42L62.53 23.82C57.68 24.31 53.14 26.25 49.62 29.34C48.79 31.25 48.28 33.27 48.1 35.32Z" fill="#AFB1B8" fill-opacity="1.000000" fill-rule="nonzero"/>
</svg>
