<svg width="170.000000" height="92.000000" viewBox="0 0 170 92" fill="none" xmlns="http://www.w3.org/2000/svg" xmlns:xlink="http://www.w3.org/1999/xlink">
	<desc>
	</desc>
	<defs/>
	<rect id="Rectangle 9" x="0.500000" y="0.500000" rx="4.000000" width="169.000000" height="91.000000" stroke="#AFB1B8" stroke-opacity="1.000000" stroke-width="1.000000"/>
</svg>
<svg width="170.000000" height="92.000000" viewBox="0 0 170 92" fill="none" xmlns="http://www.w3.org/2000/svg" xmlns:xlink="http://www.w3.org/1999/xlink">
	<desc>
	</desc>
	<defs/>
	<rect id="Rectangle 9" x="0.500000" y="0.500000" rx="4.000000" width="169.000000" height="91.000000" stroke="#AFB1B8" stroke-opacity="1.000000" stroke-width="1.000000"/>
</svg>
<svg width="170.000000" height="92.000000" viewBox="0 0 170 92" fill="none" xmlns="http://www.w3.org/2000/svg" xmlns:xlink="http://www.w3.org/1999/xlink">
	<desc>
			Created with Pixso.
	</desc>
	<defs>
		<clipPath id="clip11_3059">
			<rect id="Logo" rx="-0.500000" width="105.000000" height="59.000000" transform="translate(32.500000 16.500000)" fill="white" fill-opacity="0"/>
		</clipPath>
	</defs>
	<rect id="Rectangle 9" x="0.500000" y="0.500000" rx="4.000000" width="169.000000" height="91.000000" stroke="#AFB1B8" stroke-opacity="1.000000" stroke-width="1.000000"/>
	<rect id="Logo" rx="-0.500000" width="105.000000" height="59.000000" transform="translate(32.500000 16.500000)" fill="#2196F3" fill-opacity="0"/>
	<g clip-path="url(#clip11_3059)">
		<path id="Vector" d="M68.4 65.1C68.42 65.1 68.43 65.1 68.45 65.11C68.46 65.11 68.47 65.12 68.49 65.13L68.7 65.34C68.53 65.51 68.33 65.64 68.09 65.73C67.82 65.83 67.52 65.88 67.22 65.88C66.94 65.88 66.66 65.84 66.4 65.74C66.17 65.66 65.96 65.53 65.79 65.37C65.61 65.2 65.48 65 65.39 64.79C65.29 64.55 65.25 64.3 65.25 64.05C65.25 63.8 65.3 63.54 65.4 63.31C65.49 63.09 65.64 62.89 65.82 62.73C66.01 62.56 66.23 62.44 66.48 62.35C66.74 62.26 67.03 62.21 67.32 62.22C67.59 62.21 67.85 62.25 68.1 62.34C68.32 62.42 68.52 62.53 68.69 62.67L68.5 62.9C68.49 62.91 68.48 62.92 68.46 62.94C68.44 62.95 68.41 62.95 68.38 62.95C68.36 62.95 68.33 62.94 68.31 62.93L68.21 62.87L68.07 62.79C68.01 62.77 67.95 62.74 67.89 62.72C67.81 62.69 67.72 62.68 67.64 62.66C67.53 62.64 67.42 62.64 67.32 62.64C67.11 62.63 66.9 62.67 66.71 62.74C66.53 62.8 66.37 62.89 66.24 63.02C66.1 63.15 66 63.3 65.93 63.46C65.85 63.65 65.81 63.85 65.82 64.05C65.81 64.25 65.85 64.45 65.93 64.65C65.99 64.81 66.1 64.96 66.23 65.09C66.36 65.21 66.51 65.3 66.68 65.36C66.86 65.43 67.05 65.46 67.25 65.46C67.36 65.46 67.47 65.45 67.58 65.44C67.76 65.42 67.93 65.37 68.08 65.28C68.16 65.24 68.23 65.19 68.3 65.13C68.33 65.11 68.36 65.1 68.4 65.1Z" fill="#AFB1B8" fill-opacity="1.000000" fill-rule="nonzero"/>
		<path id="Vector" d="M74.7 64.05C74.7 64.3 74.65 64.55 74.55 64.79C74.46 65 74.32 65.19 74.14 65.36C73.96 65.52 73.74 65.65 73.5 65.73C72.96 65.91 72.37 65.91 71.84 65.73C71.6 65.65 71.38 65.52 71.2 65.36C71.02 65.19 70.88 64.99 70.78 64.78C70.59 64.3 70.59 63.78 70.78 63.3C70.88 63.09 71.02 62.89 71.2 62.72C71.38 62.56 71.6 62.44 71.84 62.36C72.37 62.18 72.96 62.18 73.5 62.36C73.74 62.45 73.96 62.57 74.14 62.74C74.32 62.9 74.46 63.1 74.55 63.31C74.65 63.54 74.7 63.8 74.7 64.05ZM74.13 64.05C74.13 63.85 74.1 63.65 74.02 63.46C73.96 63.29 73.86 63.14 73.73 63.01C73.6 62.89 73.45 62.8 73.27 62.73C72.88 62.6 72.45 62.6 72.07 62.73C71.89 62.8 71.73 62.89 71.6 63.01C71.47 63.14 71.37 63.29 71.31 63.46C71.17 63.84 71.17 64.26 71.31 64.64C71.37 64.8 71.47 64.96 71.6 65.08C71.73 65.21 71.89 65.3 72.07 65.36C72.45 65.49 72.88 65.49 73.27 65.36C73.45 65.3 73.6 65.21 73.73 65.08C73.86 64.96 73.96 64.8 74.02 64.64C74.1 64.45 74.13 64.25 74.13 64.05Z" fill="#AFB1B8" fill-opacity="1.000000" fill-rule="nonzero"/>
		<path id="Vector" d="M79 64.67L79.05 64.8C79.08 64.76 79.09 64.71 79.12 64.67C79.14 64.63 79.16 64.58 79.19 64.54L80.58 62.34C80.61 62.3 80.63 62.28 80.66 62.27C80.7 62.26 80.74 62.26 80.77 62.26L81.19 62.26L81.19 65.84L80.7 65.84L80.7 63.21C80.7 63.17 80.7 63.13 80.7 63.09C80.69 63.05 80.69 63.01 80.7 62.97L79.3 65.2C79.28 65.24 79.25 65.26 79.21 65.28C79.18 65.3 79.14 65.31 79.09 65.31L79.02 65.31C78.97 65.31 78.93 65.3 78.9 65.28C78.86 65.26 78.83 65.24 78.81 65.2L77.37 62.96C77.37 63 77.37 63.04 77.37 63.09C77.37 63.13 77.37 63.17 77.37 63.2L77.37 65.83L76.9 65.83L76.9 62.26L77.31 62.26C77.35 62.26 77.39 62.26 77.43 62.27C77.46 62.28 77.49 62.31 77.5 62.34L78.93 64.54C78.95 64.58 78.98 64.63 79 64.67Z" fill="#AFB1B8" fill-opacity="1.000000" fill-rule="nonzero"/>
		<path id="Vector" d="M84.24 64.49L84.24 65.83L83.69 65.83L83.69 62.26L84.91 62.26C85.14 62.25 85.37 62.28 85.59 62.34C85.77 62.38 85.93 62.46 86.07 62.56C86.19 62.66 86.28 62.78 86.34 62.91C86.41 63.06 86.44 63.21 86.43 63.37C86.44 63.52 86.4 63.68 86.33 63.82C86.27 63.96 86.17 64.08 86.04 64.18C85.9 64.29 85.73 64.37 85.56 64.42C85.34 64.48 85.12 64.51 84.9 64.5L84.24 64.49ZM84.24 64.11L84.9 64.11C85.04 64.11 85.19 64.09 85.32 64.05C85.43 64.02 85.54 63.97 85.63 63.9C85.71 63.83 85.77 63.75 85.81 63.66C85.86 63.57 85.88 63.47 85.88 63.36C85.88 63.26 85.87 63.16 85.82 63.07C85.78 62.98 85.72 62.9 85.63 62.83C85.42 62.69 85.16 62.62 84.9 62.63L84.24 62.63L84.24 64.11Z" fill="#AFB1B8" fill-opacity="1.000000" fill-rule="nonzero"/>
		<path id="Vector" d="M91.57 65.84L91.14 65.84C91.09 65.84 91.05 65.83 91.02 65.8C90.99 65.78 90.96 65.75 90.95 65.72L90.58 64.86L88.71 64.86L88.33 65.72C88.31 65.75 88.29 65.78 88.26 65.8C88.23 65.83 88.18 65.84 88.14 65.84L87.71 65.84L89.34 62.26L89.91 62.26L91.57 65.84ZM88.87 64.51L90.41 64.51L89.76 63.05C89.71 62.94 89.67 62.83 89.64 62.72L89.57 62.9C89.55 62.96 89.53 63.01 89.51 63.05L88.87 64.51Z" fill="#AFB1B8" fill-opacity="1.000000" fill-rule="nonzero"/>
		<path id="Vector" d="M93.92 62.27C93.96 62.29 93.98 62.31 94.01 62.34L96.39 65.04C96.39 64.99 96.39 64.95 96.39 64.91C96.39 64.87 96.39 64.83 96.39 64.79L96.39 62.26L96.88 62.26L96.88 65.84L96.61 65.84C96.57 65.84 96.53 65.83 96.49 65.82C96.46 65.8 96.43 65.78 96.41 65.75L94.02 63.05C94.03 63.1 94.03 63.14 94.02 63.18C94.02 63.22 94.02 63.25 94.02 63.29L94.02 65.84L93.54 65.84L93.54 62.26L93.83 62.26C93.86 62.26 93.89 62.26 93.92 62.27Z" fill="#AFB1B8" fill-opacity="1.000000" fill-rule="nonzero"/>
		<path id="Vector" d="M100.9 64.41L100.9 65.84L100.35 65.84L100.35 64.41L98.85 62.26L99.33 62.26C99.38 62.26 99.42 62.27 99.45 62.29C99.48 62.31 99.5 62.34 99.52 62.37L100.47 63.76C100.51 63.82 100.54 63.87 100.57 63.93C100.59 63.98 100.61 64.03 100.63 64.08L100.7 63.92C100.73 63.87 100.76 63.81 100.8 63.76L101.73 62.36C101.75 62.33 101.77 62.31 101.8 62.28C101.83 62.26 101.87 62.25 101.92 62.25L102.41 62.25L100.9 64.41Z" fill="#AFB1B8" fill-opacity="1.000000" fill-rule="nonzero"/>
		<path id="Vector" d="M78.73 56.25C78.96 56.28 79.2 56.3 79.45 56.32C83.12 54.89 86.24 52.55 88.39 49.59C90.55 46.63 91.66 43.19 91.57 39.69L87.52 36.16C88.34 39.89 87.96 43.74 86.4 47.29C84.85 50.84 82.19 53.94 78.73 56.25Z" fill="#AFB1B8" fill-opacity="1.000000" fill-rule="nonzero"/>
		<path id="Vector" d="M77.28 56.09L77.39 56.11C81.09 53.8 83.92 50.59 85.49 46.88C87.07 43.17 87.33 39.13 86.24 35.29L80.47 30.27C82.8 34.4 83.74 39.01 83.18 43.58C82.62 48.15 80.57 52.49 77.28 56.09Z" fill="#AFB1B8" fill-opacity="1.000000" fill-rule="nonzero"/>
		<path id="Vector" d="M96.86 43.82C95.88 47.67 93.5 51.14 90.07 53.71C89.07 54.47 87.99 55.14 86.84 55.73C89.63 55.01 92.2 53.75 94.35 52.04C96.49 50.33 98.15 48.21 99.2 45.85L96.86 43.82Z" fill="#AFB1B8" fill-opacity="1.000000" fill-rule="nonzero"/>
		<path id="Vector" d="M95.94 43.26L92.61 40.36C92.55 43.66 91.47 46.89 89.48 49.71C87.49 52.52 84.68 54.83 81.32 56.38L81.34 56.38C82.08 56.38 82.83 56.34 83.57 56.26C86.71 55.15 89.48 53.38 91.64 51.11C93.8 48.84 95.28 46.14 95.94 43.26Z" fill="#AFB1B8" fill-opacity="1.000000" fill-rule="nonzero"/>
		<path id="Vector" d="M77.76 28.16L73.78 24.7C70.23 25.89 67.17 27.99 65.01 30.72C62.85 33.45 61.69 36.68 61.67 39.99L61.67 39.99C61.69 43.65 63.11 47.2 65.7 50.08C68.3 52.97 71.93 55.01 76.02 55.9C79.67 52.04 81.8 47.26 82.12 42.27C82.43 37.29 80.9 32.34 77.76 28.16Z" fill="#AFB1B8" fill-opacity="1.000000" fill-rule="nonzero"/>
		<path id="Vector" d="M105.14 42.72C105.12 38.38 103.13 34.22 99.59 31.15C96.06 28.08 91.27 26.35 86.27 26.33C83.96 26.33 81.67 26.7 79.52 27.43L103.88 48.59C104.71 46.72 105.14 44.73 105.14 42.72Z" fill="#AFB1B8" fill-opacity="1.000000" fill-rule="nonzero"/>
	</g>
</svg>
<svg width="170.000000" height="92.000000" viewBox="0 0 170 92" fill="none" xmlns="http://www.w3.org/2000/svg" xmlns:xlink="http://www.w3.org/1999/xlink">
	<desc>
	</desc>
	<defs/>
	<rect id="Rectangle 9" x="0.500000" y="0.500000" rx="4.000000" width="169.000000" height="91.000000" stroke="#2196F3" stroke-opacity="1.000000" stroke-width="1.000000"/>
</svg>
<svg width="170.000000" height="92.000000" viewBox="0 0 170 92" fill="none" xmlns="http://www.w3.org/2000/svg" xmlns:xlink="http://www.w3.org/1999/xlink">
	<desc>

	</desc>
	<defs/>
	<rect id="Rectangle 9" rx="4.000000" width="170.000000" height="92.000000" fill="#FFFFFF" fill-opacity="0"/>
	<rect id="Rectangle 9" x="0.500000" y="0.500000" rx="4.000000" width="169.000000" height="91.000000" stroke="#AFB1B8" stroke-opacity="1.000000" stroke-width="1.000000"/>
</svg>
<svg width="170.000000" height="92.000000" viewBox="0 0 170 92" fill="none" xmlns="http://www.w3.org/2000/svg" xmlns:xlink="http://www.w3.org/1999/xlink">
	<desc>
	</desc>
	<defs/>
	<rect id="Rectangle 9" x="0.500000" y="0.500000" rx="4.000000" width="169.000000" height="91.000000" stroke="#AFB1B8" stroke-opacity="1.000000" stroke-width="1.000000"/>
</svg>


